# xmcd
#
# Track frame offsets:
#	150
#	65862
#	102682
#	144790
#	204488
#	244682
#
# Disc length: 3860 seconds
#
# Revision: 1
# Processed by: cddbd v1.5.2PL0 Copyright (c) Steve Scherf et al.
# Submitted via: audiograbber 1.83.01
#
DISCID=570f1206
DTITLE=Grateful Dead - 82-08-03 Starlight Theatre, Kansas City MO
DYEAR=1900
DGENRE=
TTITLE0=Shakedown Street
TTITLE1=Samson and Delilah
TTITLE2=To Lay Me Down
TTITLE3=Let It Grow
TTITLE4=Drums
TTITLE5=Space
EXTD=
EXTT0=
EXTT1=
EXTT2=
EXTT3=
EXTT4=
EXTT5=
PLAYORDER=
